<svg width="40" height="40" viewBox="0 0 40 40" fill="none" xmlns="http://www.w3.org/2000/svg">
<path d="M17.9543 5.3717L3.59418 10.801C2.79563 11.103 2.8039 12.1396 3.60746 12.4306L18.0275 17.6557C19.2944 18.1148 20.7054 18.1148 21.9724 17.6557L36.3926 12.4304C37.1959 12.1396 37.2046 11.1032 36.4056 10.8012L22.0459 5.3715C20.7359 4.87617 19.2642 4.87617 17.9541 5.3715" fill="#FCB400"/>
<path d="M20 21.056V35.0562C20 35.7219 20.6854 36.1781 21.3173 35.9327L37.3923 29.8203C37.5716 29.7507 37.7254 29.6299 37.8338 29.4736C37.9421 29.3173 38 29.1327 38 28.9438V14.9438C38 14.2779 37.3146 13.8219 36.6827 14.0673L20.6077 20.1797C20.4284 20.2494 20.2747 20.3702 20.1663 20.5265C20.058 20.6827 20 20.8673 20 21.0562" fill="#18BFFF"/>
<path d="M16.5046 21.7054L12.0962 23.9579L11.6486 24.1869L2.3428 28.9055C1.75311 29.2066 1 28.7517 1 28.0582V14.9415C1 14.6907 1.12156 14.4741 1.28458 14.3111C1.35146 14.2406 1.42733 14.1804 1.50999 14.1322C1.73218 13.991 2.04936 13.9533 2.31905 14.0662L16.4305 19.9832C17.1478 20.2844 17.2042 21.348 16.5046 21.7056" fill="#F82B60"/>
<mask id="mask0_2_964" style="mask-type:alpha" maskUnits="userSpaceOnUse" x="1" y="14" width="16" height="15">
<path d="M16.5046 21.7054L12.0962 23.9579L11.6486 24.1869L2.3428 28.9055C1.75311 29.2066 1 28.7517 1 28.0582V14.9415C1 14.6907 1.12156 14.4741 1.28458 14.3111C1.35146 14.2406 1.42733 14.1804 1.50999 14.1322C1.73218 13.991 2.04936 13.9533 2.31905 14.0662L16.4305 19.9832C17.1478 20.2844 17.2042 21.348 16.5046 21.7056" fill="#F82B60"/>
</mask>
<g mask="url(#mask0_2_964)">
<path d="M16.8151 21.7297L12 25.0002L0.5 13.8124C0.568103 13.7417 0.645349 13.6813 0.729492 13.633C0.955705 13.4912 2.22543 13.3869 2.5 13.5002L16.7397 20.0002C17.47 20.3027 17.5273 21.3706 16.8151 21.7297Z" fill="black" fill-opacity="0.25"/>
</g>
</svg>
