<svg width="103" height="122" viewBox="0 0 103 122" fill="none" xmlns="http://www.w3.org/2000/svg">
<path fill-rule="evenodd" clip-rule="evenodd" d="M90.9673 23.5898L70.993 61.2383L90.9673 98.8867L99.1495 94.3594V28.1172L90.9673 23.5898Z" fill="#E25444"/>
<path fill-rule="evenodd" clip-rule="evenodd" d="M90.9673 23.5898L51.0187 28.1172L30.6834 61.2383L51.0187 94.3594L90.9673 98.8867V23.5898Z" fill="#7B1D13"/>
<path fill-rule="evenodd" clip-rule="evenodd" d="M10.3481 23.5898L3.85046 26.4492V96.0273L10.3481 98.8867L51.0187 61.2383L10.3481 23.5898Z" fill="#58150D"/>
<path fill-rule="evenodd" clip-rule="evenodd" d="M10.2608 23.5107L51.0726 34.7364V88.7467L10.2608 98.9134V23.5107Z" fill="#E25444"/>
<path fill-rule="evenodd" clip-rule="evenodd" d="M51.094 40.6665L33.765 37.9129L51.094 18.4268L68.3802 37.9129L51.094 40.6665Z" fill="#58150D"/>
<path fill-rule="evenodd" clip-rule="evenodd" d="M68.3802 37.9129L51.0726 40.7087L33.765 37.9129V18.4268" fill="#58150D"/>
<path fill-rule="evenodd" clip-rule="evenodd" d="M51.094 81.5452L33.765 84.7224L51.094 101.455L68.3802 84.7224L51.094 81.5452Z" fill="#58150D"/>
<path fill-rule="evenodd" clip-rule="evenodd" d="M51.0187 3.8125L33.6916 12.8672V37.8867L51.0726 33.0417L51.0187 3.8125Z" fill="#7B1D13"/>
<path fill-rule="evenodd" clip-rule="evenodd" d="M51.0726 46.8086L33.765 48.6727V73.6536L51.0726 75.6142V46.8086Z" fill="#7B1D13"/>
<path fill-rule="evenodd" clip-rule="evenodd" d="M51.0726 88.9583L33.765 84.6614V109.219L51.0726 118.188V88.9583Z" fill="#7B1D13"/>
<path fill-rule="evenodd" clip-rule="evenodd" d="M68.3802 84.6614L51.0726 88.9595V118.188L68.3802 109.219V84.6614Z" fill="#E25444"/>
<path fill-rule="evenodd" clip-rule="evenodd" d="M51.0726 46.8086L68.3802 48.6727V73.6536L51.0726 75.6142V46.8086Z" fill="#E25444"/>
<path fill-rule="evenodd" clip-rule="evenodd" d="M51.0187 3.8125L68.3458 12.8672V37.8867L51.0187 33.1211V3.8125Z" fill="#E25444"/>
</svg>
