<svg width="129" height="129" viewBox="0 0 129 129" fill="none" xmlns="http://www.w3.org/2000/svg">
<path fill-rule="evenodd" clip-rule="evenodd" d="M108.238 75.8259C108.327 77.7708 107.682 79.6782 106.432 81.1705C105.182 82.6628 103.417 83.6312 101.486 83.8839C89.3059 85.4438 77.0323 86.1594 64.7533 86.0254C52.4743 86.1582 40.2007 85.4427 28.0204 83.8839C26.1563 83.5503 24.4783 82.5472 23.3019 81.0634C22.1254 79.5795 21.5316 77.7169 21.632 75.8259V50.6357C21.6529 48.7336 22.3173 46.8945 23.5169 45.4181C24.7164 43.9418 26.3805 42.915 28.2381 42.5052C32.0759 41.9912 35.9451 41.7486 39.817 41.7792C40.5712 41.7982 41.2875 42.1137 41.8106 42.6573C42.3338 43.2008 42.6217 43.9286 42.6119 44.683V62.4323C50.4158 62.4323 57.1308 61.9604 65.0437 61.9604C72.9565 61.9604 79.5626 62.396 87.4391 62.4323V44.8282C87.3892 44.0732 87.6397 43.3291 88.136 42.7579C88.6323 42.1868 89.3343 41.835 90.0888 41.7792C93.9366 41.7486 97.7817 41.9912 101.595 42.5052C103.459 42.9079 105.132 43.9315 106.339 45.4086C107.545 46.8856 108.215 48.7285 108.238 50.6357V75.8259ZM64.8985 0.00122864C52.1418 -0.0774926 39.6483 3.62826 28.9978 10.6499C18.3473 17.6716 10.0181 27.6937 5.06353 39.4491C0.108938 51.2044 -1.24854 64.165 1.16277 76.6918C3.57407 89.2186 9.64586 100.749 18.6103 109.825C27.5748 118.901 39.0293 125.115 51.5254 127.681C64.0215 130.248 76.9979 129.051 88.8138 124.242C100.63 119.433 110.754 111.229 117.907 100.666C125.06 90.1036 128.92 77.657 129 64.9005V64.5012C129.028 56.0565 127.393 47.6889 124.186 39.8765C120.98 32.0641 116.266 24.96 110.313 18.9701C104.36 12.9803 97.2854 8.222 89.493 4.96724C81.7006 1.71248 73.3433 0.0250219 64.8985 0.00122864Z" fill="#EA2328"/>
</svg>
