<svg width="185" height="183" viewBox="0 0 185 183" fill="none" xmlns="http://www.w3.org/2000/svg">
<path d="M33.5 60.5C29.6 60.5 26.5 63.6 26.5 67.5V76.2C26.4 76.2 26.3 76.2 26.1 76.2H13.1C10.2 76.2 7.40001 77.4 5.40001 79.4C3.40001 81.4 2.20001 84.2 2.20001 87.1V110.5C2.20001 113.4 3.30001 116.1 5.40001 118.2C7.50001 120.3 10.2 121.4 13.1 121.4H29.7C32.6 121.4 35.3 120.2 37.4 118.1C39.4 116.1 40.5 113.3 40.5 110.4V67.4C40.5 63.7 37.4 60.5 33.5 60.5ZM26.5 107.5H16.3V90.3H26.1C26.2 90.3 26.3 90.3 26.5 90.3V107.5Z" fill="#29E3C1"/>
<path d="M174.8 107.5H169.7V90.6001H174.5C178.4 90.6001 181.5 87.5001 181.5 83.6001C181.5 79.7001 178.4 76.6001 174.5 76.6001H169.7V67.6001C169.7 63.7001 166.6 60.6001 162.7 60.6001C158.8 60.6001 155.7 63.7001 155.7 67.6001V76.6001H150.3C146.4 76.6001 143.3 79.7001 143.3 83.6001C143.3 87.5001 146.4 90.6001 150.3 90.6001H155.7V113.9C155.7 114.1 155.6 114.3 155.6 114.5C155.6 118.4 158.7 121.5 162.6 121.5H174.8C178.7 121.5 181.8 118.4 181.8 114.5C181.8 110.6 178.6 107.5 174.8 107.5Z" fill="#29E3C1"/>
<path d="M81.6 61.2002H66.9C60.4 61.2002 55.1 66.5002 55.1 73.1002V109.4C55.1 116 60.4 121.3 66.9 121.3H81.6C88.1 121.3 93.4 116 93.4 109.4V73.1002C93.4 66.6002 88.1 61.2002 81.6 61.2002ZM79.4 107.3H69.2V75.3002H79.4V107.3Z" fill="#29E3C1"/>
<path d="M134.1 107.5H130.9V67.6C130.9 64 128.2 61.1 124.8 60.7C124.3 60.6 123.9 60.5 123.4 60.5H111C107.1 60.5 104 63.6 104 67.5C104 71.4 107.1 74.5 111 74.5H116.8V107.5H111.7C107.8 107.5 104.7 110.6 104.7 114.5C104.7 118.4 107.8 121.5 111.7 121.5H134.1C138 121.5 141.1 118.4 141.1 114.5C141.1 110.6 137.9 107.5 134.1 107.5Z" fill="#29E3C1"/>
</svg>
