<svg width="208" height="208" viewBox="0 0 208 208" fill="none" xmlns="http://www.w3.org/2000/svg">
<path d="M25.8091 91.6917C24.5166 90.4006 22.911 89.4617 20.9528 88.8357C18.9946 88.2097 16.6839 87.8967 13.9816 87.8967H0V119.078H13.9816C16.6447 119.078 18.9946 118.765 20.9528 118.139C22.911 117.513 24.5166 116.574 25.8091 115.283C27.1015 113.992 28.0414 112.388 28.668 110.432C29.2947 108.476 29.608 106.167 29.608 103.468C29.608 100.768 29.2947 98.46 28.668 96.5038C28.0414 94.5477 27.1015 92.9436 25.8091 91.6917ZM21.0702 107.81C20.7569 108.984 20.2478 109.923 19.5428 110.627C18.8379 111.332 17.898 111.84 16.723 112.153C15.5481 112.466 14.1382 112.623 12.415 112.623H7.71531V94.3912H12.415C14.1382 94.3912 15.5481 94.5477 16.723 94.8607C17.898 95.1737 18.8379 95.6823 19.5428 96.3865C20.2478 97.0907 20.7569 98.0296 21.0702 99.2034C21.3835 100.377 21.5402 101.786 21.5402 103.507C21.5402 105.228 21.3835 106.637 21.0702 107.81Z" fill="black"/>
<path d="M54.0073 98.46C53.224 97.6776 52.2449 97.0908 51.0308 96.7386C49.8167 96.3474 48.3677 96.1909 46.7227 96.1909H34.3077V101.825H46.3312C47.1927 101.825 47.7802 102.02 48.1719 102.372C48.5243 102.724 48.7201 103.351 48.7201 104.172V104.446H40.0648C37.6759 104.446 35.8743 105.072 34.6211 106.324C33.3679 107.576 32.7412 109.415 32.7412 111.762C32.7412 114.109 33.3679 115.909 34.6211 117.2C35.8743 118.491 37.7151 119.078 40.0648 119.078H56.318V105.737C56.318 104.055 56.1221 102.646 55.7697 101.433C55.378 100.221 54.7905 99.2425 54.0073 98.46ZM48.7985 113.523H42.2189C41.6706 113.523 41.2006 113.366 40.8873 113.053C40.574 112.74 40.4173 112.31 40.4173 111.762C40.4173 111.175 40.574 110.745 40.8873 110.432C41.2006 110.119 41.6314 109.962 42.2189 109.962H48.7985V113.523Z" fill="black"/>
<path d="M70.4952 112.975C70.1819 112.662 70.0253 112.153 70.0253 111.371V101.825H77.0748V96.1909H70.0253V90.0486H62.3883V96.1518H59.216V101.786H62.3883V111.762C62.3883 113.092 62.5058 114.227 62.7799 115.166C63.054 116.105 63.4457 116.848 64.0332 117.435C64.6206 118.022 65.3647 118.452 66.3047 118.687C67.2446 118.961 68.3804 119.078 69.7119 119.078H77.1531V113.444H72.101C71.3177 113.444 70.8086 113.288 70.4952 112.975Z" fill="black"/>
<path d="M101.043 98.46C100.26 97.6776 99.2808 97.0908 98.0667 96.7386C96.8526 96.3474 95.4036 96.1909 93.7586 96.1909H81.3436V101.825H93.367C94.2286 101.825 94.8161 102.02 95.2077 102.372C95.5602 102.724 95.756 103.351 95.756 104.172V104.446H87.1007C84.7117 104.446 82.9102 105.072 81.6569 106.324C80.4037 107.576 79.777 109.415 79.777 111.762C79.777 114.109 80.4037 115.909 81.6569 117.2C82.9102 118.491 84.7509 119.078 87.1007 119.078H103.354V105.737C103.354 104.055 103.158 102.646 102.806 101.433C102.414 100.221 101.826 99.2425 101.043 98.46ZM95.7951 113.523H89.2156C88.6673 113.523 88.1973 113.366 87.884 113.053C87.5707 112.74 87.4141 112.31 87.4141 111.762C87.4141 111.175 87.5707 110.745 87.884 110.432C88.1973 110.119 88.6282 109.962 89.2156 109.962H95.7951V113.523Z" fill="black"/>
<path d="M123.562 100.181H117.727C116.787 100.181 116.043 99.9467 115.573 99.4381C115.064 98.9295 114.828 98.2253 114.828 97.2863C114.828 96.3473 115.064 95.6431 115.573 95.1345C116.082 94.6259 116.787 94.3912 117.727 94.3912H131.709V87.8967H116.043C112.91 87.8967 110.56 88.6792 108.993 90.205C107.427 91.7308 106.683 94.0782 106.683 97.2472C106.683 100.416 107.466 102.764 108.993 104.328C110.521 105.893 112.871 106.676 116.043 106.676H121.996C123.954 106.676 124.973 107.654 124.973 109.649C124.973 111.645 123.993 112.623 121.996 112.623H107.544V119.117H123.523C126.656 119.117 129.006 118.335 130.612 116.731C132.217 115.127 133.04 112.779 133.04 109.649C133.04 106.519 132.217 104.172 130.612 102.607C129.006 101.042 126.656 100.181 123.562 100.181Z" fill="black"/>
<path d="M146.865 112.975C146.552 112.662 146.395 112.153 146.395 111.371V101.825H153.445V96.1909H146.395V90.0486H138.758V96.1518H135.586V101.786H138.758V111.762C138.758 113.092 138.875 114.227 139.15 115.166C139.423 116.105 139.816 116.848 140.403 117.435C140.991 118.022 141.734 118.452 142.674 118.687C143.615 118.961 144.75 119.078 146.082 119.078H153.523V113.444H148.47C147.727 113.444 147.179 113.288 146.865 112.975Z" fill="black"/>
<path d="M177.413 98.46C176.629 97.6776 175.651 97.0908 174.436 96.7386C173.222 96.3474 171.774 96.1909 170.128 96.1909H157.713V101.825H169.736C170.598 101.825 171.186 102.02 171.577 102.372C171.93 102.724 172.125 103.351 172.125 104.172V104.446H163.47C161.081 104.446 159.28 105.072 158.027 106.324C156.774 107.576 156.147 109.415 156.147 111.762C156.147 114.109 156.774 115.909 158.027 117.2C159.28 118.491 161.121 119.078 163.47 119.078H179.723V105.737C179.723 104.055 179.528 102.646 179.175 101.433C178.783 100.221 178.196 99.2425 177.413 98.46ZM172.165 113.523H165.586C165.037 113.523 164.568 113.366 164.253 113.053C163.94 112.74 163.783 112.31 163.783 111.762C163.783 111.175 163.94 110.745 164.253 110.432C164.568 110.119 164.998 109.962 165.586 109.962H172.165V113.523Z" fill="black"/>
<path d="M199.031 107.537L207.49 96.1909H199.345L194.684 102.803L190.024 96.1909H181.564L190.024 107.537L181.094 119.078H189.633L194.449 112.231L199.228 119.078H207.96L199.031 107.537Z" fill="black"/>
</svg>
