<svg width="40" height="40" viewBox="0 0 40 40" fill="none" xmlns="http://www.w3.org/2000/svg">
<g clip-path="url(#clip0_2_951)">
<path d="M10.0483 25.4243V34.4849C10.0483 37.0001 16.7362 39.0001 24.9675 39.0001C33.1987 39.0001 39.8866 36.9698 39.8866 34.4849V25.4243H10.0483Z" fill="#881421"/>
<path d="M10.0483 15.4849V25.4546C10.0483 27.9697 16.7362 29.9697 24.9675 29.9697C33.1987 29.9697 39.8866 27.9394 39.8866 25.4546V15.4849H10.0483Z" fill="#AF2031"/>
<path d="M10.0483 5.51514V15.4849C10.0483 18 16.7362 20 24.9675 20C33.1987 20 39.8866 17.9697 39.8866 15.4849V5.51514H10.0483Z" fill="#C94F60"/>
<path d="M24.9675 10.0303C33.2071 10.0303 39.8866 8.00881 39.8866 5.51516C39.8866 3.02151 33.2071 1 24.9675 1C16.7279 1 10.0483 3.02151 10.0483 5.51516C10.0483 8.00881 16.7279 10.0303 24.9675 10.0303Z" fill="#E08095"/>
<path opacity="0.1" d="M21.0637 9.12109H10.0483V31.7575H21.0637C21.9715 31.7575 22.7281 30.9999 22.7281 30.0908V10.7878C22.7281 9.87867 21.9715 9.12109 21.0637 9.12109Z" fill="black"/>
<path opacity="0.2" d="M20.1558 10.0303H10.0483V32.6667H20.1558C21.0637 32.6667 21.8202 31.9091 21.8202 31V11.6969C21.8202 10.7879 21.0637 10.0303 20.1558 10.0303Z" fill="black"/>
<path opacity="0.2" d="M20.1558 10.0303H10.0483V30.8788H20.1558C21.0637 30.8788 21.8202 30.1212 21.8202 29.2121V11.6969C21.8202 10.7879 21.0637 10.0303 20.1558 10.0303Z" fill="black"/>
<path opacity="0.2" d="M19.248 10.0303H10.0483V30.8788H19.248C20.1558 30.8788 20.9124 30.1212 20.9124 29.2121V11.6969C20.9124 10.7879 20.1558 10.0303 19.248 10.0303Z" fill="black"/>
<path d="M2.6644 10.0303H19.2479C20.1558 10.0303 20.9123 10.7879 20.9123 11.6969V28.303C20.9123 29.2121 20.1558 29.9697 19.2479 29.9697H2.6644C1.75655 29.9697 1 29.2121 1 28.303V11.6969C1 10.7879 1.75655 10.0303 2.6644 10.0303Z" fill="url(#paint0_linear_2_951)"/>
<path d="M9.77594 14.606H12.2272L16.1612 25.3939H13.8613L12.9837 22.8181H8.92861L8.08128 25.3939H5.78137L9.77594 14.606ZM12.439 21.1514L11.1983 17.2423C11.1075 16.9696 11.0167 16.6666 10.9562 16.3635H10.9259C10.8654 16.6666 10.8049 16.9696 10.7141 17.2726L9.44306 21.1514H12.439Z" fill="white"/>
</g>
<defs>
<linearGradient id="paint0_linear_2_951" x1="4.46638" y1="8.73821" x2="17.4799" y2="31.2464" gradientUnits="userSpaceOnUse">
<stop stop-color="#B72C3F"/>
<stop offset="0.5" stop-color="#B12334"/>
<stop offset="1" stop-color="#9D1623"/>
</linearGradient>
<clipPath id="clip0_2_951">
<rect width="40" height="40" fill="white"/>
</clipPath>
</defs>
</svg>
